<svg xmlns="http://www.w3.org/2000/svg" version="1.1" xmlns:xlink="http://www.w3.org/1999/xlink" xmlns:svgjs="http://svgjs.dev/svgjs" width="100%" height="100%" viewBox="0 0 1000 600"><rect width="1000" height="600" x="0" y="0" fill="#ffffff"/><g><rect width="333.3333333333333" height="333.3333333333333" rx="13.333333333333334" ry="13.333333333333334" y="412.4430949578087" fill="#0000ff" transform="matrix(0.3203314095374506,0,0,0.3203314095374506,0,114.49295485510694)" x="390.2208557128906"/><path d="M475.04008819195803 504.1097561151386Q502.8395407985512 504.1097561151386 520.7482407935354 515.3758500662316Q538.6569407885195 526.6419440173247 539.0666169321956 548.7644557758344L539.0666169321956 548.7644557758344L539.0666169321956 551.3103003829647L495.4653702123812 551.3103003829647L495.4653702123812 550.4616855139212Q495.4653702123812 544.1409678686327 490.8418823051794 539.9271561051071Q486.1891318162864 535.7133443415813 476.70805534835364 535.7133443415813L476.70805534835364 535.7133443415813Q467.4318169522589 535.7133443415813 462.4864406464544 538.4640270205496Q457.54106434065 541.1854471178265 457.54106434065 545.1944208095142L457.54106434065 545.1944208095142Q457.54106434065 550.8713616575974 464.27145812961464 553.6220443365655Q471.0311145002704 556.3727270155337 485.9842937444484 559.2989851846487L485.9842937444484 559.2989851846487Q503.4833175957565 562.8982827326603 514.7494115468495 566.7902060975832Q526.0155054979425 570.6821294625063 534.4431290249938 579.5486917149249Q542.8707525520452 588.3859913856525 543.0755906238833 603.5440087016684L543.0755906238833 603.5440087016684Q543.0755906238833 629.2658180081899 525.6936170993398 641.7024152269289Q508.31164357479634 654.1097498639767 479.25389995548375 654.1097498639767L479.25389995548375 654.1097498639767Q445.309305193749 654.1097498639767 426.464202584648 642.7558681678104Q407.619099975547 631.3727238899528 407.619099975547 602.4905557607872L407.619099975547 602.4905557607872L451.63002283903757 602.4905557607872Q451.63002283903757 613.4640238949685 457.3362262688119 617.1511091880536Q463.01316711689515 620.8381944811385 475.04008819195803 620.8381944811385L475.04008819195803 620.8381944811385Q483.8773878626855 620.8381944811385 489.67137903753337 618.9361266712137Q495.4653702123812 617.0340588612889 495.4653702123812 611.1522799413676L495.4653702123812 611.1522799413676Q495.4653702123812 605.8850152369605 489.02760224032806 603.251382884757Q482.61909684996607 600.6177505325534 468.0755937494642 597.6622297817471L468.0755937494642 597.6622297817471Q450.37173182631807 593.8580941618977 438.7837494766224 589.7613327251365Q427.19576712692674 585.6353087066843 418.56330552803735 576.1542322387515Q409.9308439291479 566.6731557708188 409.9308439291479 550.4616855139212L409.9308439291479 550.4616855139212Q409.9308439291479 526.6419440173247 428.3662703945728 515.3758500662316Q446.80169685999766 504.1097561151386 475.04008819195803 504.1097561151386L475.04008819195803 504.1097561151386ZM662.7595497406894 506.6263381405776Q673.7037552931797 506.6263381405776 682.8629433625099 511.162038302706Q692.0513940135311 515.6977384648344 697.4064464630117 523.9205239200476Q702.7907614941835 532.143309375261 702.7907614941835 542.2389000587079L702.7907614941835 542.2389000587079Q702.7907614941835 569.0141623061108 678.5613438539108 575.9493941669134L678.5613438539108 575.9493941669134L678.5613438539108 576.7980090359567Q706.1559583886658 583.1187266812453 706.1559583886658 613.0250851696012L706.1559583886658 613.0250851696012Q706.1559583886658 624.4082294474588 700.5668052856558 633.1577413731129Q694.9776521826461 641.907253298767 685.2917376428754 646.7355792778069Q675.6058231031045 651.5931678385377 664.0178407534088 651.5931678385377L664.0178407534088 651.5931678385377L566.2515553232746 651.5931678385377L566.2515553232746 506.6263381405776L662.7595497406894 506.6263381405776ZM612.8083227938953 538.4640270205496L612.8083227938953 563.1031208044983L644.8508497457052 563.1031208044983Q649.474337652907 563.1031208044983 652.5469087304778 559.8257116550894Q655.5902172263575 556.5775650873718 655.5902172263575 551.7199765266407L655.5902172263575 551.7199765266407L655.5902172263575 549.6130706448779Q655.5902172263575 544.9895827376761 652.4298584037133 541.7121735882672Q649.2694995810689 538.4640270205496 644.8508497457052 538.4640270205496L644.8508497457052 538.4640270205496L612.8083227938953 538.4640270205496ZM612.8083227938953 593.0094792928542L612.8083227938953 617.8826737303323L648.2160466401874 617.8826737303323Q652.8395345473893 617.8826737303323 655.9121056249601 614.6052645809234Q658.9554141208398 611.3571180132058 658.9554141208398 606.4995294524747L658.9554141208398 606.4995294524747L658.9554141208398 604.392623570712Q658.9554141208398 599.5642975916719 655.9121056249601 596.286888442263Q652.8395345473893 593.0094792928542 648.2160466401874 593.0094792928542L648.2160466401874 593.0094792928542L612.8083227938953 593.0094792928542Z " fill="#ffffff" transform="matrix(0.3203314095374506,0,0,0.3203314095374506,0,114.49295485510694)"/><path d="M874.3085208091456 504.1097561151386Q902.1079734157387 504.1097561151386 920.0166734107229 515.3758500662316Q937.9253734057071 526.6419440173247 938.3350495493831 548.7644557758344L938.3350495493831 548.7644557758344L938.3350495493831 551.3103003829647L894.7338028295687 551.3103003829647L894.7338028295687 550.4616855139212Q894.7338028295687 544.1409678686327 890.1103149223669 539.9271561051071Q885.457564433474 535.7133443415813 875.9764879655412 535.7133443415813L875.9764879655412 535.7133443415813Q866.7002495694464 535.7133443415813 861.7548732636419 538.4640270205496Q856.8094969578375 541.1854471178265 856.8094969578375 545.1944208095142L856.8094969578375 545.1944208095142Q856.8094969578375 550.8713616575974 863.5398907468021 553.6220443365655Q870.2995471174579 556.3727270155337 885.252726361636 559.2989851846487L885.252726361636 559.2989851846487Q902.751750212944 562.8982827326603 914.017844164037 566.7902060975832Q925.28393811513 570.6821294625063 933.7115616421813 579.5486917149249Q942.1391851692327 588.3859913856525 942.3440232410708 603.5440087016684L942.3440232410708 603.5440087016684Q942.3440232410708 629.2658180081899 924.9620497165273 641.7024152269289Q907.5800761919838 654.1097498639767 878.5223325726713 654.1097498639767L878.5223325726713 654.1097498639767Q844.5777378109365 654.1097498639767 825.7326352018356 642.7558681678104Q806.8875325927345 631.3727238899528 806.8875325927345 602.4905557607872L806.8875325927345 602.4905557607872L850.8984554562251 602.4905557607872Q850.8984554562251 613.4640238949685 856.6046588859995 617.1511091880536Q862.2815997340826 620.8381944811385 874.3085208091456 620.8381944811385L874.3085208091456 620.8381944811385Q883.145820479873 620.8381944811385 888.9398116547209 618.9361266712137Q894.7338028295687 617.0340588612889 894.7338028295687 611.1522799413676L894.7338028295687 611.1522799413676Q894.7338028295687 605.8850152369605 888.2960348575156 603.251382884757Q881.8875294671536 600.6177505325534 867.3440263666517 597.6622297817471L867.3440263666517 597.6622297817471Q849.6401644435056 593.8580941618977 838.05218209381 589.7613327251365Q826.4641997441142 585.6353087066843 817.8317381452248 576.1542322387515Q809.1992765463353 566.6731557708188 809.1992765463353 550.4616855139212L809.1992765463353 550.4616855139212Q809.1992765463353 526.6419440173247 827.6347030117604 515.3758500662316Q846.0701294771852 504.1097561151386 874.3085208091456 504.1097561151386L874.3085208091456 504.1097561151386ZM1096.3529906815966 543.7312917249567L1048.9476083419327 543.7312917249567L1048.9476083419327 651.5931678385377L1002.3908408713119 651.5931678385377L1002.3908408713119 543.7312917249567L954.7806204598098 543.7312917249567L954.7806204598098 506.6263381405776L1096.3529906815966 506.6263381405776L1096.3529906815966 543.7312917249567ZM1249.7474439066082 651.5931678385377L1200.4399937570192 651.5931678385377L1194.3241141835688 631.1678858181147L1143.5535349494226 631.1678858181147L1137.437655375972 651.5931678385377L1089.82743496447 651.5931678385377L1142.7049200803792 506.6263381405776L1196.869958790699 506.6263381405776L1249.7474439066082 651.5931678385377ZM1168.6315674587386 547.096488619439L1153.2394494891935 598.7156827226286L1184.638199643798 598.7156827226286L1169.4801823277821 547.096488619439L1168.6315674587386 547.096488619439ZM1404.8098642880154 551.1054623111265Q1404.8098642880154 564.3614118172178 1397.6405317736835 575.1007792978701Q1390.5004618410426 585.8694093602135 1376.8055736095844 590.9025734110915L1376.8055736095844 590.9025734110915L1409.0236760515413 651.5931678385377L1356.7899677328373 651.5931678385377L1331.0681584263157 598.7156827226286L1313.803235228537 598.7156827226286L1313.803235228537 651.5931678385377L1267.2464677579162 651.5931678385377L1267.2464677579162 506.6263381405776L1355.9413528637938 506.6263381405776Q1371.538308905177 506.6263381405776 1382.599564784432 512.6544299689547Q1393.660820663687 518.6532592156404 1399.2207111850057 528.8659002258521Q1404.8098642880154 539.0785412360636 1404.8098642880154 551.1054623111265L1404.8098642880154 551.1054623111265ZM1357.4044819483515 552.9782675393602Q1357.4044819483515 547.3013266912769 1353.629608910193 543.4971910714274Q1349.8254732903433 539.722318033269 1344.3533705140983 539.722318033269L1344.3533705140983 539.722318033269L1313.803235228537 539.722318033269L1313.803235228537 566.4683176989806L1344.3533705140983 566.4683176989806Q1349.8254732903433 566.4683176989806 1353.629608910193 562.5763943340576Q1357.4044819483515 558.6844709691345 1357.4044819483515 552.9782675393602L1357.4044819483515 552.9782675393602ZM1431.146187810051 651.5931678385377L1431.146187810051 506.6263381405776L1477.7029552806716 506.6263381405776L1477.7029552806716 614.51747683585L1552.0884379395764 614.51747683585L1552.0884379395764 651.5931678385377L1431.146187810051 651.5931678385377ZM1620.3580410250308 651.5931678385377L1573.8012735544103 651.5931678385377L1573.8012735544103 506.6263381405776L1620.3580410250308 506.6263381405776L1620.3580410250308 651.5931678385377ZM1797.952649308624 651.5931678385377L1757.3069233396157 651.5931678385377L1696.4114908403315 581.2166588713205L1696.4114908403315 651.5931678385377L1653.6295964078693 651.5931678385377L1653.6295964078693 506.6263381405776L1694.3045849585687 506.6263381405776L1755.2000174578532 578.0563000486763L1755.2000174578532 506.6263381405776L1797.952649308624 506.6263381405776L1797.952649308624 651.5931678385377ZM1902.039652384047 504.1097561151386Q1922.9038731298376 504.1097561151386 1939.5542821121023 510.4304737604272Q1956.204691094367 516.7511914057156 1965.9783933792112 529.0707382976902Q1975.7813582457468 541.3902851896646 1975.7813582457468 559.0941471128107L1975.7813582457468 559.0941471128107L1931.331496656889 559.0941471128107Q1931.331496656889 550.0520093702451 1923.3135492735134 544.4628562672353Q1915.3248644718294 538.8737031642256 1903.9417201939716 538.8737031642256L1903.9417201939716 538.8737031642256Q1887.4961492835453 538.8737031642256 1879.0685257564935 547.6232150898796Q1870.6409022294422 556.3727270155337 1870.6409022294422 572.3793592005932L1870.6409022294422 572.3793592005932L1870.6409022294422 585.8694093602135Q1870.6409022294422 601.876041545273 1879.0685257564935 610.6255534709269Q1887.4961492835453 619.3458028148898 1903.9417201939716 619.3458028148898L1903.9417201939716 619.3458028148898Q1915.3248644718294 619.3458028148898 1923.3135492735134 613.9907503654092Q1931.331496656889 608.6064353342376 1931.331496656889 600.1788118071861L1931.331496656889 600.1788118071861L1898.4696174177263 600.1788118071861L1898.4696174177263 570.6821294625063L1975.7813582457468 570.6821294625063L1975.7813582457468 651.5931678385377L1951.7567786773118 651.5931678385377L1947.13329077011 637.2545028098741Q1927.322522965201 654.1097498639767 1895.3092585950824 654.1097498639767L1895.3092585950824 654.1097498639767Q1859.2870205332758 654.1097498639767 1841.1442198847624 635.2646472548759Q1823.0306818179404 616.4195446457747 1823.0306818179404 579.1097529895578L1823.0306818179404 579.1097529895578Q1823.0306818179404 542.2389000587079 1843.5730141651281 523.1889593777689Q1864.115346512316 504.1097561151386 1902.039652384047 504.1097561151386L1902.039652384047 504.1097561151386ZM2171.313929106015 506.6263381405776Q2182.2581346585057 506.6263381405776 2191.417322727835 511.162038302706Q2200.6057733788566 515.6977384648344 2205.960825828337 523.9205239200476Q2211.3451408595092 532.143309375261 2211.3451408595092 542.2389000587079L2211.3451408595092 542.2389000587079Q2211.3451408595092 569.0141623061108 2187.1157232192363 575.9493941669134L2187.1157232192363 575.9493941669134L2187.1157232192363 576.7980090359567Q2214.7103377539916 583.1187266812453 2214.7103377539916 613.0250851696012L2214.7103377539916 613.0250851696012Q2214.7103377539916 624.4082294474588 2209.1211846509814 633.1577413731129Q2203.532031547972 641.907253298767 2193.846117008201 646.7355792778069Q2184.16020246843 651.5931678385377 2172.5722201187345 651.5931678385377L2172.5722201187345 651.5931678385377L2074.8059346886002 651.5931678385377L2074.8059346886002 506.6263381405776L2171.313929106015 506.6263381405776ZM2121.362702159221 538.4640270205496L2121.362702159221 563.1031208044983L2153.405229111031 563.1031208044983Q2158.028717018233 563.1031208044983 2161.1012880958033 559.8257116550894Q2164.144596591683 556.5775650873718 2164.144596591683 551.7199765266407L2164.144596591683 551.7199765266407L2164.144596591683 549.6130706448779Q2164.144596591683 544.9895827376761 2160.9842377690393 541.7121735882672Q2157.823878946395 538.4640270205496 2153.405229111031 538.4640270205496L2153.405229111031 538.4640270205496L2121.362702159221 538.4640270205496ZM2121.362702159221 593.0094792928542L2121.362702159221 617.8826737303323L2156.7704260055134 617.8826737303323Q2161.393913912715 617.8826737303323 2164.4664849902856 614.6052645809234Q2167.509793486165 611.3571180132058 2167.509793486165 606.4995294524747L2167.509793486165 606.4995294524747L2167.509793486165 604.392623570712Q2167.509793486165 599.5642975916719 2164.4664849902856 596.286888442263Q2161.393913912715 593.0094792928542 2156.7704260055134 593.0094792928542L2156.7704260055134 593.0094792928542L2121.362702159221 593.0094792928542ZM2381.5655785569325 651.5931678385377L2332.287390989035 651.5931678385377L2326.171511415584 631.1678858181147L2275.4009321814374 631.1678858181147L2269.2850526079874 651.5931678385377L2221.674832196485 651.5931678385377L2274.5523173123947 506.6263381405776L2328.688093441023 506.6263381405776L2381.5655785569325 651.5931678385377ZM2300.449702109063 547.096488619439L2285.0868467212085 598.7156827226286L2316.485596875814 598.7156827226286L2301.2983169781064 547.096488619439L2300.449702109063 547.096488619439ZM2543.387655308996 651.5931678385377L2502.712666758296 651.5931678385377L2441.8464968407034 581.2166588713205L2441.8464968407034 651.5931678385377L2399.0646024082407 651.5931678385377L2399.0646024082407 506.6263381405776L2439.7395909589404 506.6263381405776L2500.605760876533 578.0563000486763L2500.605760876533 506.6263381405776L2543.387655308996 506.6263381405776L2543.387655308996 651.5931678385377ZM2621.138334862383 568.5752235807436L2672.7575289655724 506.6263381405776L2730.4926026422127 506.6263381405776L2678.4344698136556 566.2634796271426L2731.546055583094 651.5931678385377L2676.5324020037306 651.5931678385377L2646.4212054435366 598.5108446507907L2621.138334862383 619.1409647430517L2621.138334862383 651.5931678385377L2574.5815673917623 651.5931678385377L2574.5815673917623 506.6263381405776L2621.138334862383 506.6263381405776L2621.138334862383 568.5752235807436Z " fill="#ff0000" transform="matrix(0.3203314095374506,0,0,0.3203314095374506,0,114.49295485510694)"/></g></svg>